<svg width="29" height="20" viewBox="0 0 29 20" fill="none" xmlns="http://www.w3.org/2000/svg">
<path fill-rule="evenodd" clip-rule="evenodd" d="M26.4074 0.367152C26.5157 0.483241 26.6016 0.621149 26.6602 0.772978C26.7188 0.924806 26.749 1.08757 26.749 1.25195C26.749 1.41634 26.7188 1.5791 26.6602 1.73093C26.6016 1.88276 26.5157 2.02067 26.4074 2.13676L10.1275 19.6328C10.0195 19.7492 9.89119 19.8416 9.74991 19.9046C9.60864 19.9676 9.45719 20 9.30423 20C9.15128 20 8.99983 19.9676 8.85855 19.9046C8.71728 19.8416 8.58896 19.7492 8.48094 19.6328L0.34102 10.8848C0.122668 10.6501 0 10.3319 0 10C0 9.66813 0.122668 9.34986 0.34102 9.1152C0.559371 8.88053 0.855519 8.7487 1.16431 8.7487C1.47311 8.7487 1.76926 8.88053 1.98761 9.1152L9.30423 16.9809L24.7608 0.367152C24.8688 0.25077 24.9971 0.158434 25.1384 0.0954319C25.2797 0.0324299 25.4311 0 25.5841 0C25.737 0 25.8885 0.0324299 26.0297 0.0954319C26.171 0.158434 26.2993 0.25077 26.4074 0.367152Z" fill="#2DC071"/>
</svg>
